<svg width="16" height="16" viewBox="0 0 16 16" fill="none" xmlns="http://www.w3.org/2000/svg">
<path d="M11.3333 2.33331H4.66658C2.66659 2.33331 1.33325 3.33331 1.33325 5.66665V10.3333C1.33325 12.6666 2.66659 13.6666 4.66658 13.6666H11.3333C13.3333 13.6666 14.6666 12.6666 14.6666 10.3333V5.66665C14.6666 3.33331 13.3333 2.33331 11.3333 2.33331ZM11.6466 6.39331L9.55992 8.05998C9.11992 8.41331 8.55992 8.58665 7.99992 8.58665C7.43992 8.58665 6.87325 8.41331 6.43992 8.05998L4.35325 6.39331C4.13992 6.21998 4.10659 5.89998 4.27325 5.68665C4.44658 5.47331 4.75992 5.43331 4.97325 5.60665L7.05992 7.27331C7.56659 7.67998 8.42658 7.67998 8.93325 7.27331L11.0199 5.60665C11.2333 5.43331 11.5533 5.46665 11.7199 5.68665C11.8933 5.89998 11.8599 6.21998 11.6466 6.39331Z" fill="white" fill-opacity="0.6"/>
</svg>
