<svg width="103" height="67" viewBox="0 0 103 67" fill="none" xmlns="http://www.w3.org/2000/svg">
<mask id="mask0_243_11478" style="mask-type:alpha" maskUnits="userSpaceOnUse" x="35" y="-6" width="64" height="82">
<path d="M78.4189 35.8177C79.7007 26.4731 92.3812 16.5505 98.5611 12.7572L89.9613 2.08487C86.2479 -0.622435 77.6224 -5.89405 72.8287 -5.32222C66.8363 -4.60741 55.4615 1.2293 47.7768 7.99508C40.0922 14.7608 36.5957 20.9376 35.5168 22.7929C34.4379 24.648 39.7264 44.154 42.2017 49.3208C44.677 54.4879 46.8477 68.2785 47.0331 70.9353C47.2185 73.5922 60.0309 75.3678 63.0786 75.7486C65.5166 76.0531 75.5299 66.5737 80.2318 61.7958C79.0934 57.0302 77.1371 45.1625 78.4189 35.8177Z" fill="#D9D9D9"/>
</mask>
<g mask="url(#mask0_243_11478)">
<path d="M65.9615 58.1569L65.0199 51.4874C64.9061 51.5121 64.7987 51.5338 64.6987 51.5527C63.5488 49.2003 61.1601 44.1409 60.8055 42.7218C60.3621 40.948 64.5289 31.9469 65.4645 30.4692C66.1217 29.4311 67.137 26.279 67.7219 24.2973L65.5828 24.4466L60.0733 39.7961C59.9794 40.0824 59.7432 41.1896 59.3651 43.1181L59.2518 43.126C58.9388 41.9077 58.5637 41.0251 58.2044 40.3032C58.0786 40.3495 58.2751 40.2899 58.0784 40.3037C53.5625 36.8983 56.4776 36.0279 54.7061 32.8604C53.0494 30.8431 52.6254 26.0995 55.476 28.5605C49.6602 22.7881 43.4755 21.7072 41.1422 21.7159C48.191 24.5113 53.5617 35.7977 54.7403 42.0491C54.1113 42.2157 52.7285 42.5875 51.5758 42.0608C60.105 48.3217 58.483 53.7391 56.2895 53.8123C60.738 58.5697 60.7387 62.1634 59.8417 63.4808C59.1241 64.5348 58.7606 64.3974 58.1051 64.0428C59.3243 66.115 59.6101 66.0304 60.4823 65.8254C60.9683 65.9443 61.3427 65.9981 61.6384 66.0029L62.0272 65.9758C62.4825 65.8957 62.6897 65.6509 62.9236 65.3745C63.4774 64.0163 64.3806 60.9431 63.563 59.5166C64.4118 60.2556 65.6448 62.3194 63.7871 64.663C65.8998 63.0769 65.9741 60.7301 65.7472 59.755C65.9039 59.4925 65.9894 59.2995 66.0306 59.1475L65.9917 58.5904C65.9502 58.4631 65.91 58.3227 65.9316 58.1035L65.9615 58.1569Z" fill="#FFBC00"/>
</g>
<path d="M61.2565 35.7158C61.417 38.0153 59.027 39.9536 58.0651 40.2783C57.725 41.9821 59.1924 45.6682 59.8756 46.9303C60.4224 47.94 62.9708 54.7662 65.4583 57.7439C65.0209 51.4756 66.1365 49.3426 68.8423 51.0328C70.8424 47.2365 71.8009 47.2736 71.6467 44.6766C69.6385 41.9255 72.5804 39.6352 70.7787 38.6232C68.8403 37.5346 70.5289 37.7076 68.6838 38.0162C68.5194 41.1478 68.2508 42.969 65.8876 46.1136C64.8492 46.4867 62.5476 43.6025 62.3552 42.4786C62.8156 43.5908 65.4737 45.5476 65.4031 45.5417C62.8901 42.5231 64.8739 39.2345 66.0424 38.2293C68.9968 35.6878 71.0535 38.8656 72.5462 34.3877C73.2475 32.284 76.4014 33.1104 76.5684 29.6515C76.0782 31.0878 75.0711 31.437 73.1575 31.7573C71.6789 32.0046 70.9456 33.3449 70.9456 33.3449C71.8858 30.5255 72.8131 29.8714 74.8988 28.4933C83.0459 23.9626 80.3136 14.3713 80.9878 9.73969C81.4899 6.29012 83.3777 3.73382 86.0659 3.03253C75.6349 3.76041 73.8122 15.5165 72.4577 19.4188C71.752 21.4515 70.1718 22.2531 68.5895 22.4591C67.0072 22.665 65.8083 23.2017 65.1754 24.5655C64.9 20.6198 68.5058 21.2594 70.4066 19.5619C72.3075 17.8644 72.2215 16.381 71.9901 15.0279C71.8622 16.1922 70.713 17.7112 69.762 18.1055C68.5733 18.5986 68.1241 18.976 65.8073 19.5025C63.4906 20.0292 62.3273 21.3945 62.0819 23.4617C61.8362 25.5293 65.0433 27.0509 62.4934 29.359C61.2431 30.4904 60.9932 31.9414 61.2565 35.7158Z" fill="#FFBC00"/>
<path d="M87.1106 18.0159C80.8554 20.6698 82.1479 24.1194 78.4542 27.8982C79.8985 26.9922 80.8096 26.7479 82.0762 25.3394C84.0313 23.1649 83.4565 19.807 87.1106 18.0159Z" fill="#FFBC00"/>
<mask id="mask1_243_11478" style="mask-type:alpha" maskUnits="userSpaceOnUse" x="0" y="7" width="51" height="56">
<path d="M31.4723 59.6946C26.7335 61.6247 12.8047 62.286 6.43263 62.3754C5.17628 56.2992 2.28659 43.5573 0.778487 41.1983C-1.10663 38.2497 2.39437 18.681 2.66362 18.681C2.87901 18.681 13.882 11.5327 19.3566 7.95859H40.3575C41.4343 7.95859 47.268 15.1069 50.05 18.681C49.4219 24.7572 47.8961 37.7671 46.8193 41.1983C45.4731 45.4874 37.3957 57.2822 31.4723 59.6946Z" fill="#D9D9D9"/>
</mask>
<g mask="url(#mask1_243_11478)">
<path fill-rule="evenodd" clip-rule="evenodd" d="M36.5686 20.8357C34.1447 19.6674 30.9796 19.0832 27.0735 19.0832C21.9784 19.0832 17.9719 20.5742 15.0538 23.5564C12.1358 26.5386 10.6768 30.5121 10.6768 35.4772C10.6768 40.7652 12.3133 45.0539 15.5865 48.3434C18.8751 51.6331 23.1364 53.2777 28.3704 53.2777C31.6125 53.2777 34.3454 52.8705 36.5686 52.0558V48.3985C34.2914 50.0668 31.4784 51.0526 28.4342 51.0526C20.8457 51.0526 14.6941 44.9279 14.6941 37.3727C14.6941 29.8177 20.8457 23.693 28.4342 23.693C31.4784 23.693 34.2914 24.6786 36.5686 26.3469V20.8357Z" fill="#FFBC00"/>
</g>
<path d="M6.03697 33.2143C6.03697 32.7941 5.92547 32.4006 5.86971 32.2563C5.18393 32.2563 5.43834 35.6161 5.65127 37.296C5.77303 36.0837 6.03697 33.7398 6.03697 33.2143Z" fill="#FFBC00"/>
<path d="M5.86975 39.3026C5.81843 40.1684 6.04991 42.2823 7.38627 43.8104C7.08464 43.2124 6.35905 41.4737 5.86975 39.3026Z" fill="#FFBC00"/>
<path d="M34.6803 54.3948C34.5722 54.7926 35.0652 54.6987 35.3255 54.602C37.2785 53.7936 39.0253 52.0273 39.6544 51.2451C39.5643 51.3418 39.03 51.7715 37.6149 52.7163C35.8457 53.8975 34.8154 53.8975 34.6803 54.3948Z" fill="#FFBC00"/>
<path fill-rule="evenodd" clip-rule="evenodd" d="M23.2826 51.2789C32.938 52.097 36.1592 49.3789 37.6146 46.112C36.2285 49.7444 36.3814 48.8026 35.1594 49.5256C38.3031 48.7718 40.638 43.8044 41.4126 41.4151C41.3437 42.6259 40.6763 44.6993 40.3513 45.5847C40.8582 45.082 41.5951 43.7759 41.9002 43.1856C40.9593 47.1611 38.1426 50.0207 36.8517 50.9536C37.6091 50.6794 38.7353 49.716 39.2039 49.2687C38.9973 49.68 38.219 50.4682 37.8557 50.8108C40.747 49.0972 43.0379 44.2328 43.822 42.0148C42.6746 49.4686 37.0813 52.4672 34.8151 53.6381C32.5491 54.809 25.4928 55.7722 21.2188 54.3521C16.9449 52.9321 12.6996 50.2111 9.48696 44.8134C6.91685 40.4954 7.26871 36.1602 7.7659 34.5324C7.74295 35.3548 7.96668 36.246 8.08143 36.5886C8.08143 36.0004 9.01893 35.7651 9.15714 33.3707C9.43215 28.6064 12.3677 23.3844 14.6445 21.6942C7.13486 25.601 6.81359 33.8985 7.13486 38.2165C7.53644 43.614 11.8964 50.2682 17.3464 53.1396C21.7064 55.4367 26.6592 55.5905 28.5908 55.3802C28.017 55.5629 26.8791 55.7176 26.382 55.7722C28.7704 55.9864 30.6284 55.545 31.8462 55.2556C32.0055 55.2178 32.1539 55.1825 32.2909 55.1517C31.5566 55.3294 31.2774 55.4923 31.2296 55.5516C31.7714 55.6658 33.366 55.1846 34.0955 54.9297C31.9274 56.4565 28.9131 56.5092 29.8649 56.3513C30.6265 56.225 30.6405 55.9125 30.5525 55.7722C26.9036 56.5092 21.1923 56.6146 15.904 53.1396C10.6158 49.6647 7.38612 44.7479 6.51277 39.0283C5.81409 34.4527 6.80389 30.1362 7.38612 28.5501C7.01846 28.5501 6.65069 28.9772 6.51277 29.1906C7.54222 25.2374 10.9296 22.0718 12.4946 20.9832C10.1998 22.9195 8.91314 25.1622 8.55664 26.0415C10.5402 22.8662 13.7749 20.3942 15.1443 19.5554C14.8915 19.1874 14.4718 19.402 14.2935 19.5554C14.5609 19.2891 15.2221 18.742 15.7277 18.684C15.7908 18.6769 15.8542 18.6701 15.9177 18.6633C16.4908 18.6021 17.0816 18.539 17.6724 18.1032C18.1975 17.716 17.8047 17.6159 17.5427 17.6142C20.1898 15.8571 24.9878 15.5704 27.0559 15.6467C25.1809 15.7931 23.7317 16.2568 23.2414 16.4703C23.8544 16.2568 26.0119 16.3239 28.1072 16.4703C29.0683 16.5375 30.3423 17.0133 31.4601 17.431C32.61 17.8605 33.5946 18.2284 33.9037 18.0261C33.6096 17.5501 32.3104 16.7906 31.6976 16.4703C36.5508 17.6418 39.6924 20.7486 40.6566 22.1558C40.227 21.7956 38.8719 20.9195 38.2479 20.5267C40.4573 21.9331 41.9455 25.1397 42.4134 26.5671C42.1597 26.2424 41.9153 26.1314 41.8247 26.1163C41.9153 27.063 41.7795 28.0095 41.4625 28.4152C41.1456 28.821 40.0589 29.4069 39.3797 28.4152C38.8366 27.6219 38.1272 26.552 37.8404 26.1163C38.1302 26.7294 38.4742 27.634 38.61 28.0095C37.5026 26.3416 32.8697 20.769 25.0802 20.9394C17.2908 21.1099 12.7542 25.5415 10.6998 31.1662C8.64544 36.7909 11.2134 50.2563 23.2826 51.2789ZM37.1196 19.81C36.8394 19.4156 35.9488 18.6327 34.6275 18.6559C34.7722 18.7135 35.1606 18.8752 35.5546 19.0597C35.7193 19.1368 35.9291 19.2719 36.1422 19.409C36.5668 19.6823 37.0037 19.9636 37.1196 19.81ZM10.9721 46.3073C7.5719 42.5772 8.03297 38.7656 8.55664 36.9885C9.48696 33.8316 9.71279 36.7641 9.71279 38.2165C9.71279 39.6687 9.87445 41.7122 10.3025 42.5524C9.46951 42.0825 9.48696 41.0517 9.01828 40.2025C9.01828 40.5032 8.91775 40.801 9.25059 41.8203C9.32045 42.0341 9.39964 42.2766 9.48696 42.5524C9.88966 43.824 10.3025 44.4266 10.9721 46.3073Z" fill="#FFBC00"/>
</svg>
