<svg width="112" height="37" viewBox="0 0 112 37" fill="none" xmlns="http://www.w3.org/2000/svg">
<g clip-path="url(#clip0_1297_789)">
<mask id="mask0_1297_789" style="mask-type:luminance" maskUnits="userSpaceOnUse" x="-3" y="0" width="114" height="37">
<path d="M110.602 0H-2.3979V37H110.602V0Z" fill="white"/>
</mask>
<g mask="url(#mask0_1297_789)">
<mask id="mask1_1297_789" style="mask-type:alpha" maskUnits="userSpaceOnUse" x="17" y="-3" width="37" height="45">
<path d="M41.8108 19.7799C42.5243 14.6195 49.5829 9.13983 53.023 7.04502L48.2359 1.15134C46.1688 -0.343735 41.3674 -3.25493 38.699 -2.93914C35.3633 -2.54439 29.0315 0.678865 24.7539 4.41519C20.4762 8.15148 18.5299 11.5626 17.9293 12.5871C17.3287 13.6116 20.2726 24.3836 21.6504 27.2369C23.0283 30.0903 24.2366 37.706 24.3398 39.1732C24.443 40.6405 31.5751 41.621 33.2716 41.8313C34.6287 41.9995 40.2026 36.7646 42.8199 34.126C42.1862 31.4943 41.0973 24.9405 41.8108 19.7799Z" fill="#D9D9D9"/>
</mask>
<g mask="url(#mask1_1297_789)">
<path d="M34.8763 32.1165L34.3523 28.4333C34.2889 28.447 34.2291 28.459 34.1734 28.4694C33.5334 27.1703 32.2037 24.3763 32.0063 23.5926C31.7594 22.6131 34.0789 17.6423 34.5997 16.8263C34.9656 16.253 35.5307 14.5123 35.8563 13.4179L34.6655 13.5004L31.5987 21.9769C31.5464 22.1351 31.415 22.7465 31.2045 23.8115L31.1414 23.8158C30.9672 23.1431 30.7584 22.6557 30.5584 22.257C30.4883 22.2826 30.5977 22.2496 30.4882 22.2573C27.9745 20.3767 29.5972 19.896 28.6111 18.1468C27.6889 17.0328 27.4528 14.4132 29.0396 15.7722C25.8022 12.5845 22.3595 11.9876 21.0607 11.9924C24.9844 13.5361 27.974 19.7689 28.6301 23.2211C28.28 23.3131 27.5102 23.5185 26.8685 23.2276C31.6163 26.6851 30.7134 29.6768 29.4925 29.7172C31.9687 32.3445 31.9691 34.329 31.4698 35.0566C31.0704 35.6386 30.868 35.5627 30.5031 35.3669C31.1817 36.5113 31.3409 36.4646 31.8264 36.3513C32.0969 36.417 32.3053 36.4467 32.4699 36.4494L32.6863 36.4344C32.9398 36.3902 33.0551 36.255 33.1853 36.1023C33.4936 35.3523 33.9963 33.6551 33.5413 32.8674C34.0137 33.2755 34.7001 34.4152 33.666 35.7094C34.842 34.8335 34.8834 33.5375 34.7571 32.999C34.8443 32.8541 34.8919 32.7475 34.9148 32.6635L34.8932 32.3559C34.8701 32.2856 34.8477 32.2081 34.8597 32.087L34.8763 32.1165Z" fill="#FBA10F"/>
</g>
<path d="M32.2575 19.7237C32.3468 20.9935 31.0164 22.0639 30.481 22.2432C30.2917 23.1841 31.1085 25.2198 31.4888 25.9167C31.7931 26.4743 33.2117 30.244 34.5964 31.8884C34.3529 28.4268 34.9739 27.2489 36.4801 28.1823C37.5935 26.0858 38.127 26.1063 38.0412 24.6722C36.9233 23.1529 38.5609 21.8881 37.558 21.3292C36.479 20.7281 37.419 20.8236 36.3919 20.994C36.3004 22.7234 36.1509 23.7292 34.8354 25.4657C34.2574 25.6718 32.9762 24.079 32.8691 23.4583C33.1253 24.0725 34.6049 25.1532 34.5657 25.1499C33.1668 23.4829 34.2711 21.6668 34.9215 21.1117C36.5661 19.7082 37.711 21.4631 38.5419 18.9902C38.9322 17.8285 40.6879 18.2849 40.7808 16.3747C40.508 17.1679 39.9474 17.3607 38.8822 17.5376C38.0591 17.6742 37.6509 18.4143 37.6509 18.4143C38.1743 16.8574 38.6904 16.4961 39.8515 15.7351C44.3865 13.2331 42.8656 7.93639 43.2409 5.37864C43.5204 3.47365 44.5712 2.06196 46.0676 1.67468C40.2612 2.07665 39.2466 8.56882 38.4926 10.7238C38.0998 11.8464 37.2202 12.289 36.3394 12.4028C35.4586 12.5165 34.7912 12.8129 34.4389 13.566C34.2856 11.3871 36.2928 11.7403 37.3509 10.8028C38.409 9.86542 38.3611 9.04623 38.2323 8.29899C38.1611 8.94196 37.5214 9.78081 36.9921 9.99856C36.3304 10.2709 36.0803 10.4793 34.7907 10.77C33.5011 11.0609 32.8535 11.8149 32.7169 12.9565C32.5802 14.0983 34.3654 14.9386 32.946 16.2132C32.25 16.838 32.1109 17.6393 32.2575 19.7237Z" fill="#FBA10F"/>
<path d="M46.649 9.94908C43.167 11.4147 43.8865 13.3197 41.8304 15.4065C42.6344 14.9061 43.1415 14.7712 43.8467 13.9934C44.9349 12.7926 44.6149 10.9382 46.649 9.94908Z" fill="#FBA10F"/>
<mask id="mask2_1297_789" style="mask-type:alpha" maskUnits="userSpaceOnUse" x="-2" y="4" width="29" height="31">
<path d="M15.6778 32.9657C13.04 34.0316 5.28649 34.3967 1.73947 34.4461C1.04012 31.0906 -0.568422 24.054 -1.40791 22.7513C-2.45726 21.123 -0.508426 10.3164 -0.358548 10.3164C-0.238651 10.3164 5.88617 6.3688 8.9336 4.39504H20.6238C21.2232 4.39504 24.4705 8.34262 26.0191 10.3164C25.6695 13.6719 24.8202 20.8565 24.2207 22.7513C23.4714 25.1199 18.9751 31.6335 15.6778 32.9657Z" fill="#D9D9D9"/>
</mask>
<g mask="url(#mask2_1297_789)">
<path fill-rule="evenodd" clip-rule="evenodd" d="M18.5147 11.5063C17.1654 10.8611 15.4035 10.5385 13.2292 10.5385C10.393 10.5385 8.16281 11.3619 6.53845 13.0088C4.91414 14.6556 4.10199 16.85 4.10199 19.5919C4.10199 22.5121 5.01295 24.8805 6.83498 26.6971C8.66558 28.5138 11.0376 29.422 13.9511 29.422C15.7559 29.422 17.2771 29.1971 18.5147 28.7472V26.7275C17.2471 27.6488 15.6812 28.1932 13.9867 28.1932C9.76251 28.1932 6.33822 24.8109 6.33822 20.6387C6.33822 16.4665 9.76251 13.0842 13.9867 13.0842C15.6812 13.0842 17.2471 13.6285 18.5147 14.5498V11.5063Z" fill="#FBA10F"/>
</g>
<path d="M1.51923 18.3422C1.51923 18.1102 1.45717 17.8929 1.42613 17.8132C1.04439 17.8132 1.18601 19.6686 1.30453 20.5963C1.37231 19.9268 1.51923 18.6324 1.51923 18.3422Z" fill="#FBA10F"/>
<path d="M1.42614 21.7044C1.39757 22.1826 1.52642 23.3499 2.27031 24.1938C2.10241 23.8636 1.69851 22.9034 1.42614 21.7044Z" fill="#FBA10F"/>
<path d="M17.4635 30.0389C17.4034 30.2586 17.6778 30.2067 17.8227 30.1533C18.9098 29.7069 19.8822 28.7315 20.2324 28.2995C20.1822 28.3529 19.8848 28.5902 19.0971 29.112C18.1123 29.7643 17.5387 29.7643 17.4635 30.0389Z" fill="#FBA10F"/>
<path fill-rule="evenodd" clip-rule="evenodd" d="M11.119 28.3182C16.4937 28.77 18.2868 27.2689 19.0969 25.4648C18.3254 27.4708 18.4105 26.9507 17.7302 27.35C19.4802 26.9337 20.7799 24.1905 21.2111 22.871C21.1727 23.5397 20.8012 24.6847 20.6203 25.1736C20.9025 24.896 21.3127 24.1747 21.4825 23.8488C20.9587 26.0442 19.3908 27.6234 18.6723 28.1386C19.0939 27.9871 19.7208 27.4551 19.9816 27.2081C19.8666 27.4352 19.4334 27.8705 19.2311 28.0597C20.8406 27.1134 22.1158 24.4271 22.5523 23.2022C21.9136 27.3185 18.8001 28.9744 17.5386 29.621C16.2772 30.2677 12.3493 30.7996 9.9702 30.0153C7.59113 29.2312 5.22798 27.7285 3.43969 24.7477C2.00901 22.3631 2.20488 19.9691 2.48164 19.0701C2.46886 19.5243 2.5934 20.0164 2.65728 20.2056C2.65728 19.8808 3.17912 19.7509 3.25605 18.4286C3.40918 15.7976 5.04323 12.9138 6.31061 11.9804C2.13037 14.1379 1.95153 18.7201 2.13037 21.1046C2.35391 24.0853 4.78088 27.76 7.81462 29.3457C10.2416 30.6143 12.9986 30.6992 14.0738 30.5831C13.7544 30.684 13.121 30.7694 12.8443 30.7996C14.1738 30.9179 15.2081 30.6741 15.8859 30.5143C15.9746 30.4934 16.0572 30.4739 16.1335 30.4569C15.7247 30.555 15.5693 30.645 15.5427 30.6777C15.8443 30.7408 16.7319 30.4751 17.138 30.3343C15.9311 31.1775 14.2532 31.2066 14.7831 31.1194C15.207 31.0496 15.2148 30.8771 15.1658 30.7996C13.1346 31.2066 9.95545 31.2648 7.01171 29.3457C4.06803 27.4268 2.27023 24.7115 1.78408 21.5529C1.39516 19.0261 1.94613 16.6424 2.27023 15.7665C2.06558 15.7665 1.86086 16.0023 1.78408 16.1202C2.35713 13.9371 4.24271 12.1889 5.11387 11.5877C3.83647 12.657 3.12025 13.8955 2.9218 14.3811C4.02595 12.6276 5.82655 11.2625 6.58883 10.7993C6.4481 10.596 6.21448 10.7145 6.11523 10.7993C6.26408 10.6522 6.63213 10.3501 6.91358 10.318C6.9487 10.3141 6.98399 10.3104 7.01934 10.3066C7.33836 10.2728 7.66722 10.238 7.99609 9.99729C8.28839 9.78346 8.06974 9.72818 7.9239 9.72724C9.3974 8.75691 12.0682 8.59858 13.2194 8.64071C12.1757 8.72156 11.369 8.97764 11.0961 9.09554C11.4373 8.97764 12.6383 9.01469 13.8046 9.09554C14.3396 9.13265 15.0488 9.3954 15.671 9.62607C16.3111 9.86326 16.8592 10.0664 17.0313 9.95471C16.8675 9.69185 16.1443 9.27242 15.8032 9.09554C18.5048 9.74249 20.2535 11.4582 20.7903 12.2353C20.5511 12.0364 19.7968 11.5526 19.4494 11.3356C20.6793 12.1123 21.5077 13.8831 21.7682 14.6714C21.627 14.4921 21.4909 14.4308 21.4405 14.4224C21.4909 14.9452 21.4153 15.4679 21.2389 15.692C21.0625 15.9161 20.4575 16.2396 20.0795 15.692C19.7771 15.2539 19.3823 14.663 19.2226 14.4224C19.3839 14.761 19.5754 15.2606 19.651 15.4679C19.0346 14.5469 16.4557 11.4694 12.1196 11.5635C7.78368 11.6577 5.25838 14.105 4.11479 17.2112C2.97123 20.3174 4.40069 27.7535 11.119 28.3182ZM18.8214 10.9398C18.6654 10.722 18.1697 10.2897 17.4342 10.3025C17.5147 10.3343 17.7309 10.4236 17.9502 10.5255C18.0419 10.5681 18.1587 10.6427 18.2773 10.7184C18.5137 10.8693 18.7569 11.0247 18.8214 10.9398ZM4.26637 25.5727C2.37365 23.5128 2.6303 21.4079 2.9218 20.4265C3.43969 18.6831 3.56538 20.3026 3.56538 21.1046C3.56538 21.9066 3.65533 23.0351 3.89364 23.4991C3.42995 23.2396 3.43969 22.6703 3.17879 22.2014C3.17879 22.3674 3.12282 22.5319 3.3081 23.0948C3.34695 23.2129 3.39104 23.3468 3.43969 23.4991C3.66385 24.2013 3.89364 24.5341 4.26637 25.5727Z" fill="#FBA10F"/>
<path d="M49.1232 22.379V27.9002H47.3905V13.2924H51.4539C53.0353 13.2924 54.2591 13.6728 55.1258 14.4334C55.9986 15.194 56.435 16.267 56.435 17.6524C56.435 19.0378 55.9507 20.1719 54.981 21.0547C54.0186 21.9376 52.7156 22.379 51.0724 22.379H49.1232ZM49.1232 14.8409V20.8307H50.9383C52.1346 20.8307 53.0457 20.5624 53.6712 20.0259C54.3036 19.4825 54.6203 18.7186 54.6203 17.7338C54.6203 15.8052 53.4653 14.8409 51.1549 14.8409H49.1232ZM73.2397 27.9002H65.5669V13.2924H67.2992V26.3518H73.2397V27.9002ZM93.9115 27.9002H91.9933L90.4258 23.8051H84.1551L82.6805 27.9002H80.7517L86.424 13.2924H88.2186L93.9115 27.9002ZM89.8585 22.2669L87.5378 16.0429C87.4621 15.8391 87.3864 15.5132 87.3107 15.0649H87.2695C87.2011 15.4793 87.122 15.8052 87.0324 16.0429L84.7329 22.2669H89.8585ZM110.602 13.2924L105.724 22.5012V27.9002H103.991V22.542L99.237 13.2924H101.207L104.517 19.8934C104.559 19.975 104.679 20.2737 104.878 20.7899H104.91C104.979 20.5589 105.109 20.2601 105.302 19.8934L108.767 13.2924H110.602Z" fill="black"/>
</g>
</g>
<defs>
<clipPath id="clip0_1297_789">
<rect width="111" height="37" fill="white" transform="translate(0.102097)"/>
</clipPath>
</defs>
</svg>
